<svg width="13" height="16" viewBox="0 0 13 16" fill="none" xmlns="http://www.w3.org/2000/svg">
<path d="M8.375 11.3502V13.9062C8.375 14.13 8.2861 14.3446 8.12787 14.5029C7.96964 14.6611 7.75503 14.75 7.53125 14.75H2.46875C2.24497 14.75 2.03036 14.6611 1.87213 14.5029C1.71389 14.3446 1.625 14.13 1.625 13.9062V2.09375C1.625 1.86997 1.71389 1.65536 1.87213 1.49713C2.03036 1.33889 2.24497 1.25 2.46875 1.25H3.03912C3.39237 0.8225 3.80075 0.4445 4.25412 0.125H2.46875C1.94661 0.125 1.44585 0.332421 1.07663 0.701634C0.707421 1.07085 0.5 1.57161 0.5 2.09375V13.9062C0.5 14.993 1.382 15.875 2.46875 15.875H7.53125C8.05339 15.875 8.55415 15.6676 8.92337 15.2984C9.29258 14.9292 9.5 14.4284 9.5 13.9062V11.1421C9.13225 11.2462 8.75563 11.3158 8.375 11.3502ZM3.3125 13.0625C3.3125 12.9133 3.37176 12.7702 3.47725 12.6648C3.58274 12.5593 3.72582 12.5 3.875 12.5H6.125C6.27418 12.5 6.41726 12.5593 6.52275 12.6648C6.62824 12.7702 6.6875 12.9133 6.6875 13.0625C6.6875 13.2117 6.62824 13.3548 6.52275 13.4602C6.41726 13.5657 6.27418 13.625 6.125 13.625H3.875C3.72582 13.625 3.58274 13.5657 3.47725 13.4602C3.37176 13.3548 3.3125 13.2117 3.3125 13.0625ZM7.8125 10.25C9.15516 10.25 10.4428 9.71663 11.3922 8.76723C12.3416 7.81782 12.875 6.53016 12.875 5.1875C12.875 3.84484 12.3416 2.55717 11.3922 1.60777C10.4428 0.658369 9.15516 0.125 7.8125 0.125C6.46984 0.125 5.18217 0.658369 4.23277 1.60777C3.28337 2.55717 2.75 3.84484 2.75 5.1875C2.75 6.53016 3.28337 7.81782 4.23277 8.76723C5.18217 9.71663 6.46984 10.25 7.8125 10.25ZM10.4608 3.89825L7.08575 7.27325C7.0335 7.32563 6.97143 7.36719 6.90309 7.39555C6.83475 7.42391 6.76149 7.43851 6.6875 7.43851C6.61351 7.43851 6.54025 7.42391 6.47191 7.39555C6.40357 7.36719 6.3415 7.32563 6.28925 7.27325L5.16425 6.14825C5.11195 6.09595 5.07047 6.03386 5.04216 5.96553C5.01386 5.8972 4.99929 5.82396 4.99929 5.75C4.99929 5.67604 5.01386 5.6028 5.04216 5.53447C5.07047 5.46614 5.11195 5.40405 5.16425 5.35175C5.26987 5.24613 5.41313 5.18679 5.5625 5.18679C5.63646 5.18679 5.7097 5.20136 5.77803 5.22966C5.84636 5.25797 5.90845 5.29945 5.96075 5.35175L6.6875 6.07963L9.66425 3.10175C9.76987 2.99613 9.91313 2.93679 10.0625 2.93679C10.2119 2.93679 10.3551 2.99613 10.4608 3.10175C10.5664 3.20737 10.6257 3.35063 10.6257 3.5C10.6257 3.64937 10.5664 3.79263 10.4608 3.89825Z" fill="#6C757D"/>
</svg>
